<?xml version="1.0" standalone="no"?>
<!DOCTYPE svg PUBLIC "-//W3C//DTD SVG 20010904//EN"
 "http://www.w3.org/TR/2001/REC-SVG-20010904/DTD/svg10.dtd">
<svg version="1.0" xmlns="http://www.w3.org/2000/svg"
 width="480.000000pt" height="500.000000pt" viewBox="0 0 480.000000 500.000000"
 preserveAspectRatio="xMidYMid meet">
<metadata>
Created by potrace 1.10, written by Peter Selinger 2001-2011
</metadata>
<g transform="translate(0.000000,500.000000) scale(0.100000,-0.100000)"
fill="#fafafa" stroke="none">
<path d="M2180 4782 c-19 -10 -165 -94 -325 -186 -159 -93 -308 -178 -330
-190 -22 -13 -152 -87 -290 -166 -137 -79 -265 -152 -284 -162 -19 -11 -111
-63 -205 -117 -94 -54 -195 -110 -224 -125 -101 -51 -92 66 -92 -1194 0 -911
2 -1108 14 -1135 8 -21 32 -45 62 -64 27 -17 417 -241 868 -498 l818 -467 52
4 c46 4 140 55 886 482 459 263 843 485 854 494 48 44 46 3 46 1122 0 694 -3
1050 -10 1050 -8 0 -663 -371 -1511 -856 -119 -68 -231 -127 -248 -130 l-31
-6 0 131 c0 83 4 131 10 131 21 0 1661 943 1657 953 -5 16 -1618 936 -1652
942 -20 4 -42 -1 -65 -13z m50 -577 c0 -207 -3 -315 -10 -315 -6 0 -88 42
-183 94 -94 51 -212 115 -262 141 -90 47 -123 70 -114 79 13 13 546 315 557
316 9 0 12 -69 12 -315z m-544 -305 c154 -83 279 -156 279 -162 0 -15 -552
-358 -576 -358 -9 0 -124 61 -255 137 -132 75 -258 147 -282 161 -24 13 -41
29 -39 35 4 13 565 336 583 337 7 0 137 -68 290 -150z m544 -655 c0 -190 -4
-345 -9 -345 -7 0 -117 61 -311 172 -19 11 -85 49 -147 85 -62 35 -115 69
-118 74 -6 9 53 48 364 240 107 65 201 119 208 119 10 0 13 -66 13 -345z
m-1504 230 c12 -8 133 -78 270 -156 137 -77 255 -146 262 -151 9 -8 12 -102
12 -409 0 -339 -2 -399 -14 -399 -17 0 -567 328 -578 344 -4 6 -8 185 -8 399
0 364 1 387 18 387 10 0 27 -7 38 -15z m1131 -646 c175 -99 330 -183 346 -186
l27 -5 0 -429 c0 -312 -3 -429 -11 -429 -16 0 -681 400 -696 418 -10 12 -13
110 -13 414 0 341 2 398 15 398 8 0 157 -81 332 -181z m-877 -592 l285 -172 3
-389 c2 -364 1 -388 -15 -382 -28 11 -546 308 -565 324 -17 14 -18 46 -18 397
0 351 2 396 19 395 3 -1 134 -78 291 -173z m903 -542 l347 -208 0 -374 c0
-205 -3 -373 -6 -373 -10 0 -677 381 -696 398 -17 14 -18 45 -18 387 0 204 3
375 6 378 8 8 -40 36 367 -208z"/>
</g>
</svg>
